<svg width="23" height="21" viewBox="0 0 23 21" fill="none" xmlns="http://www.w3.org/2000/svg">
<path fill-rule="evenodd" clip-rule="evenodd" d="M9.02922 15.0982L13.7911 19.8471C13.9701 20.024 14.212 20.1229 14.4639 20.1224C14.7159 20.1218 14.9574 20.0218 15.1355 19.8441C15.3137 19.6664 15.414 19.4256 15.4146 19.1743C15.4152 18.9231 15.3159 18.6818 15.1385 18.5033L10.3758 13.7537C11.2053 12.5883 11.5656 11.1547 11.3852 9.73696C11.2048 8.31922 10.4969 7.02079 9.40183 6.09898C8.30677 5.17717 6.90442 4.69924 5.47268 4.75992C4.04094 4.82059 2.6843 5.41543 1.67159 6.42656C0.658886 7.43769 0.0640202 8.79132 0.00487518 10.2192C-0.0542717 11.6471 0.426619 13.0451 1.35225 14.136C2.27788 15.227 3.58071 15.9314 5.00255 16.1097C6.42439 16.2879 7.86149 15.9269 9.02906 15.0983L9.02922 15.0982ZM8.28841 13.2554C7.55419 13.9258 6.58599 14.2829 5.59109 14.2502C4.59618 14.2175 3.65363 13.7977 2.96521 13.0807C2.27679 12.3636 1.89721 11.4063 1.90774 10.4136C1.91826 9.42095 2.31805 8.47183 3.02152 7.76945C3.72499 7.06707 4.67623 6.66725 5.67161 6.65557C6.66699 6.6439 7.6274 7.0213 8.34724 7.70698C9.06708 8.39266 9.48915 9.33214 9.52308 10.3243C9.55702 11.3164 9.20013 12.2824 8.52881 13.0154C8.43515 13.0807 8.35378 13.162 8.28842 13.2555L8.28841 13.2554ZM22.8652 5.70149C22.8652 5.45021 22.7655 5.20914 22.5877 5.03104C22.41 4.85294 22.1687 4.7523 21.9167 4.75115H14.2853C14.0333 4.75231 13.7921 4.85294 13.6144 5.03102C13.4366 5.2091 13.3368 5.45014 13.3368 5.70141C13.3368 5.95267 13.4366 6.19371 13.6144 6.37179C13.7921 6.54988 14.0333 6.65051 14.2853 6.65167H21.9167C22.0417 6.6517 22.1654 6.62711 22.2807 6.57932C22.3961 6.53153 22.5009 6.46147 22.589 6.37318C22.6771 6.28488 22.7469 6.18009 22.7943 6.06482C22.8417 5.94955 22.8658 5.82608 22.8652 5.70149ZM22.8652 10.4524C22.8651 10.3274 22.8402 10.2037 22.7921 10.0883C22.744 9.97288 22.6736 9.86806 22.5848 9.77982C22.4961 9.69158 22.3908 9.62164 22.2749 9.57401C22.159 9.52637 22.0349 9.50198 21.9096 9.50221H17.151C17.0256 9.50186 16.9014 9.52619 16.7855 9.57378C16.6696 9.62138 16.5642 9.69133 16.4755 9.7796C16.3867 9.86787 16.3163 9.97275 16.2682 10.0882C16.2202 10.2037 16.1954 10.3275 16.1954 10.4525C16.1954 10.5775 16.2202 10.7013 16.2682 10.8167C16.3163 10.9322 16.3867 11.0371 16.4755 11.1253C16.5642 11.2136 16.6696 11.2836 16.7855 11.3312C16.9014 11.3788 17.0256 11.4031 17.151 11.4027H21.9096C22.035 11.4032 22.1593 11.379 22.2752 11.3314C22.3912 11.2839 22.4967 11.2139 22.5855 11.1256C22.6743 11.0373 22.7447 10.9324 22.7927 10.8168C22.8407 10.7013 22.8654 10.5775 22.8652 10.4524ZM22.8652 15.2037C22.8651 15.0787 22.8402 14.955 22.7921 14.8396C22.744 14.7242 22.6736 14.6194 22.5848 14.5311C22.4961 14.4429 22.3908 14.3729 22.2749 14.3253C22.159 14.2777 22.0349 14.2533 21.9096 14.2535H17.151C17.0256 14.2532 16.9014 14.2775 16.7855 14.3251C16.6696 14.3727 16.5643 14.4426 16.4755 14.5309C16.3868 14.6191 16.3164 14.724 16.2683 14.8395C16.2203 14.9549 16.1955 15.0787 16.1955 15.2037C16.1955 15.3287 16.2203 15.4525 16.2683 15.5679C16.3164 15.6834 16.3868 15.7882 16.4755 15.8765C16.5643 15.9648 16.6696 16.0347 16.7855 16.0823C16.9014 16.1299 17.0256 16.1542 17.151 16.1539H21.9096C22.035 16.1544 22.1592 16.1302 22.2752 16.0826C22.3912 16.0351 22.4966 15.9652 22.5854 15.8769C22.6742 15.7886 22.7447 15.6837 22.7927 15.5681C22.8407 15.4526 22.8654 15.3288 22.8652 15.2037ZM22.8652 0.950183C22.8648 0.697892 22.764 0.456089 22.5848 0.277917C22.4057 0.0997452 22.163 -0.000215882 21.91 2.85095e-06H2.858C2.73268 -0.000303284 2.60854 0.024048 2.49267 0.0716619C2.3768 0.119276 2.27149 0.189217 2.18277 0.27748C2.09405 0.365743 2.02366 0.470593 1.97563 0.586026C1.9276 0.701459 1.90288 0.825207 1.90288 0.950183C1.90288 1.07516 1.9276 1.19891 1.97563 1.31434C2.02366 1.42977 2.09405 1.53462 2.18277 1.62289C2.27149 1.71115 2.3768 1.78109 2.49267 1.8287C2.60854 1.87632 2.73268 1.90067 2.858 1.90036H21.91C22.0354 1.90083 22.1596 1.87659 22.2756 1.82904C22.3915 1.78148 22.4969 1.71155 22.5856 1.62325C22.6744 1.53496 22.7448 1.43004 22.7928 1.31454C22.8408 1.19903 22.8654 1.07521 22.8652 0.950183Z" fill="black"/>
</svg>
