<svg width="23" height="21" viewBox="0 0 23 21" fill="none" xmlns="http://www.w3.org/2000/svg">
<path fill-rule="evenodd" clip-rule="evenodd" d="M9.16398 15.9771L13.9259 20.726C14.1048 20.9029 14.3467 21.0019 14.5987 21.0013C14.8507 21.0007 15.0921 20.9007 15.2703 20.723C15.4485 20.5453 15.5488 20.3045 15.5494 20.0532C15.5499 19.802 15.4507 19.5607 15.2733 19.3822L10.5106 14.6326C11.3401 13.4672 11.7003 12.0336 11.5199 10.6159C11.3395 9.19812 10.6317 7.8997 9.5366 6.97789C8.44153 6.05607 7.03918 5.57815 5.60744 5.63882C4.1757 5.69949 2.81907 6.29434 1.80636 7.30547C0.793652 8.3166 0.198786 9.67023 0.139641 11.0981C0.0804939 12.526 0.561384 13.924 1.48702 15.0149C2.41265 16.1059 3.71547 16.8103 5.13731 16.9886C6.55916 17.1668 7.99625 16.8058 9.16383 15.9772L9.16398 15.9771ZM8.42318 14.1343C7.68896 14.8047 6.72076 15.1618 5.72585 15.1291C4.73094 15.0964 3.78839 14.6766 3.09997 13.9596C2.41155 13.2425 2.03198 12.2852 2.0425 11.2925C2.05303 10.2999 2.45282 9.35074 3.15629 8.64836C3.85976 7.94598 4.811 7.54615 5.80638 7.53448C6.80176 7.5228 7.76217 7.9002 8.48201 8.58589C9.20185 9.27157 9.62391 10.211 9.65785 11.2032C9.69178 12.1953 9.33489 13.1613 8.66358 13.8943C8.56992 13.9596 8.48854 14.0409 8.42319 14.1344L8.42318 14.1343ZM23 6.5804C23 6.32911 22.9002 6.08805 22.7225 5.90995C22.5447 5.73185 22.3035 5.63121 22.0515 5.63005H14.4201C14.1681 5.63122 13.9269 5.73185 13.7491 5.90993C13.5714 6.08801 13.4716 6.32905 13.4716 6.58031C13.4716 6.83158 13.5714 7.07262 13.7491 7.2507C13.9269 7.42878 14.1681 7.52941 14.4201 7.53058H22.0515C22.1764 7.53061 22.3001 7.50602 22.4155 7.45823C22.5309 7.41043 22.6356 7.34038 22.7238 7.25208C22.8119 7.16379 22.8817 7.059 22.9291 6.94373C22.9765 6.82846 23.0006 6.70498 23 6.5804ZM23 11.3313C22.9998 11.2063 22.975 11.0826 22.9269 10.9672C22.8788 10.8518 22.8083 10.747 22.7196 10.6587C22.6308 10.5705 22.5255 10.5005 22.4097 10.4529C22.2938 10.4053 22.1697 10.3809 22.0443 10.3811H17.2857C17.1604 10.3808 17.0362 10.4051 16.9203 10.4527C16.8044 10.5003 16.699 10.5702 16.6102 10.6585C16.5215 10.7468 16.451 10.8517 16.403 10.9671C16.3549 11.0826 16.3302 11.2064 16.3302 11.3314C16.3302 11.4564 16.3549 11.5802 16.403 11.6956C16.451 11.8111 16.5215 11.916 16.6102 12.0042C16.699 12.0925 16.8044 12.1625 16.9203 12.2101C17.0362 12.2577 17.1604 12.282 17.2857 12.2816H22.0443C22.1698 12.2821 22.294 12.2579 22.41 12.2103C22.526 12.1628 22.6314 12.0928 22.7202 12.0045C22.809 11.9162 22.8795 11.8113 22.9275 11.6958C22.9755 11.5802 23.0001 11.4564 23 11.3313ZM23 16.0826C22.9998 15.9576 22.975 15.8339 22.9269 15.7185C22.8788 15.6031 22.8083 15.4983 22.7196 15.41C22.6308 15.3218 22.5255 15.2519 22.4097 15.2042C22.2938 15.1566 22.1697 15.1322 22.0443 15.1324H17.2857C17.1604 15.1321 17.0362 15.1564 16.9203 15.204C16.8044 15.2516 16.699 15.3215 16.6103 15.4098C16.5215 15.4981 16.4511 15.6029 16.4031 15.7184C16.355 15.8338 16.3303 15.9576 16.3303 16.0826C16.3303 16.2076 16.355 16.3314 16.4031 16.4468C16.4511 16.5623 16.5215 16.6671 16.6103 16.7554C16.699 16.8437 16.8044 16.9136 16.9203 16.9612C17.0362 17.0088 17.1604 17.0331 17.2857 17.0328H22.0443C22.1697 17.0333 22.294 17.0091 22.41 16.9615C22.526 16.914 22.6314 16.8441 22.7202 16.7558C22.809 16.6675 22.8794 16.5626 22.9275 16.447C22.9755 16.3315 23.0001 16.2077 23 16.0826ZM23 1.82909C22.9996 1.5768 22.8987 1.33499 22.7196 1.15682C22.5405 0.978651 22.2978 0.87869 22.0448 0.878909H2.99277C2.86745 0.878603 2.7433 0.902954 2.62744 0.950568C2.51157 0.998182 2.40626 1.06812 2.31754 1.15639C2.22882 1.24465 2.15842 1.3495 2.1104 1.46493C2.06237 1.58037 2.03764 1.70411 2.03764 1.82909C2.03764 1.95406 2.06237 2.07781 2.1104 2.19325C2.15842 2.30868 2.22882 2.41353 2.31754 2.50179C2.40626 2.59005 2.51157 2.66 2.62744 2.70761C2.7433 2.75522 2.86745 2.77957 2.99277 2.77927H22.0448C22.1702 2.77974 22.2944 2.7555 22.4103 2.70794C22.5263 2.66039 22.6317 2.59045 22.7204 2.50216C22.8092 2.41386 22.8796 2.30895 22.9275 2.19344C22.9755 2.07794 23.0001 1.95411 23 1.82909Z" fill="white"/>
</svg>
