<svg width="21" height="22" viewBox="0 0 21 22" fill="none" xmlns="http://www.w3.org/2000/svg">
<path d="M12.7984 14.8297H8.64289C8.53083 14.8298 8.42196 14.79 8.33371 14.7166C8.24546 14.6433 8.18291 14.5407 8.15608 14.4251L7.22126 10.4509C7.21214 10.4122 7.21145 10.3718 7.21924 10.3328C7.22704 10.2938 7.24311 10.2572 7.26625 10.2257C7.28938 10.1943 7.31895 10.1689 7.35273 10.1514C7.3865 10.134 7.42358 10.1249 7.46114 10.125H13.9802C14.0177 10.1249 14.0548 10.134 14.0886 10.1514C14.1224 10.1689 14.1519 10.1943 14.1751 10.2257C14.1982 10.2572 14.2143 10.2938 14.2221 10.3328C14.2299 10.3718 14.2292 10.4122 14.2201 10.4509L13.2852 14.4251C13.2584 14.5407 13.1959 14.6433 13.1076 14.7166C13.0194 14.79 12.9105 14.8298 12.7984 14.8297V14.8297Z" stroke="black" stroke-width="1.65909" stroke-linecap="round" stroke-linejoin="round"/>
<path d="M8.92578 10.1245L9.94879 8.19922H11.1102" stroke="black" stroke-width="1.2904" stroke-linecap="round" stroke-linejoin="round"/>
<path d="M11.3828 8.19922L12.4094 10.1245" stroke="black" stroke-width="1.2904" stroke-linecap="round" stroke-linejoin="round"/>
<path d="M14.447 3.1201L11.5987 5.14037H11.5988C11.5069 5.20501 11.3989 5.24343 11.2864 5.25143C11.174 5.25943 11.0615 5.2367 10.9612 5.18572C10.8609 5.13474 10.7768 5.05747 10.7179 4.96237C10.659 4.86727 10.6277 4.75799 10.6274 4.64648V3.42542C10.546 3.44781 10.4622 3.45986 10.3777 3.46127C8.79455 3.4616 7.24394 3.90602 5.90585 4.74294C4.56777 5.57985 3.49709 6.77495 2.81808 8.18952C2.13908 9.60409 1.8796 11.1801 2.06975 12.7347C2.25991 14.2893 2.89191 15.7586 3.89239 16.9722C4.89287 18.1858 6.22082 19.0939 7.72208 19.591C9.22335 20.0881 10.8364 20.154 12.374 19.7808C13.9115 19.4077 15.3106 18.611 16.4088 17.483C17.5069 16.3551 18.2592 14.9422 18.5781 13.4084C18.5947 13.2725 18.6397 13.1415 18.71 13.0237C18.7804 12.9058 18.8748 12.8037 18.9871 12.7237C19.0994 12.6438 19.2272 12.5877 19.3626 12.5591C19.4979 12.5305 19.6377 12.53 19.7733 12.5575C19.9088 12.5851 20.0371 12.6401 20.1501 12.7192C20.263 12.7983 20.3582 12.8997 20.4295 13.017C20.5008 13.1343 20.5467 13.2649 20.5644 13.4007C20.5821 13.5364 20.5711 13.6743 20.5322 13.8057C20.1373 15.7067 19.2053 17.458 17.8445 18.8561C16.4836 20.2542 14.7497 21.2419 12.8441 21.7044C10.9385 22.1669 8.93936 22.0853 7.07876 21.4691C5.21815 20.8528 3.57244 19.7272 2.33269 18.223C1.09294 16.7187 0.310004 14.8975 0.0747971 12.9707C-0.16041 11.044 0.161755 9.09076 1.00389 7.33785C1.84602 5.58495 3.17357 4.10426 4.83241 3.06771C6.49125 2.03116 8.41332 1.48127 10.3755 1.48188C10.4599 1.48327 10.5438 1.49532 10.6251 1.51773V0.606415C10.6255 0.494919 10.6568 0.385667 10.7157 0.290589C10.7746 0.195511 10.8587 0.118264 10.959 0.0672916C11.0593 0.0163196 11.1717 -0.00641813 11.2842 0.00155948C11.3966 0.00953709 11.5047 0.0479265 11.5965 0.112531L14.4449 2.13279C14.5246 2.18883 14.5895 2.26289 14.6343 2.3488C14.6791 2.43472 14.7025 2.52999 14.7025 2.62666C14.7025 2.72333 14.6791 2.81859 14.6343 2.90451C14.5895 2.99042 14.5246 3.06448 14.4449 3.12052L14.447 3.1201ZM18.6413 10.4338C18.6794 10.665 18.7989 10.8755 18.9788 11.0279C19.1587 11.1803 19.3873 11.2648 19.6241 11.2665C19.6765 11.2678 19.729 11.2641 19.7807 11.2554C19.9771 11.2267 20.1604 11.1408 20.3073 11.0087C20.4542 10.8766 20.5581 10.7044 20.6057 10.5137C20.6534 10.3231 20.6427 10.1228 20.5749 9.93823C20.5072 9.75366 20.3855 9.59318 20.2253 9.47721C20.0651 9.36123 19.8736 9.29499 19.6753 9.2869C19.4769 9.27882 19.2806 9.32925 19.1113 9.4318C18.942 9.53435 18.8074 9.68437 18.7245 9.8628C18.6416 10.0412 18.6143 10.24 18.6459 10.4339L18.6413 10.4338ZM17.1275 5.22784C17.1572 5.09055 17.1306 4.9472 17.0535 4.82932C16.9764 4.71145 16.8551 4.6287 16.7163 4.59928C16.5775 4.56986 16.4326 4.59619 16.3134 4.67246C16.1942 4.74874 16.1105 4.86871 16.0808 5.006C16.0511 5.14328 16.0777 5.28663 16.1548 5.40451C16.2319 5.52239 16.3532 5.60514 16.492 5.63456C16.6308 5.66397 16.7757 5.63765 16.8949 5.56138C17.0141 5.48511 17.0977 5.36512 17.1275 5.22784Z" fill="black"/>
</svg>
