<svg width="22" height="23" viewBox="0 0 22 23" fill="none" xmlns="http://www.w3.org/2000/svg">
<path d="M13.3814 15.5084H9.03695C8.91979 15.5085 8.80598 15.4669 8.71371 15.3902C8.62145 15.3135 8.55606 15.2062 8.52801 15.0854L7.5507 10.9305C7.54116 10.8901 7.54044 10.8479 7.54859 10.8071C7.55674 10.7663 7.57355 10.728 7.59773 10.6952C7.62191 10.6623 7.65283 10.6357 7.68814 10.6175C7.72345 10.5992 7.76221 10.5898 7.80148 10.5898H14.6168C14.6561 10.5898 14.6949 10.5992 14.7302 10.6175C14.7655 10.6357 14.7964 10.6623 14.8206 10.6952C14.8448 10.728 14.8616 10.7663 14.8697 10.8071C14.8779 10.8479 14.8772 10.8901 14.8676 10.9305L13.8903 15.0854C13.8623 15.2062 13.7969 15.3135 13.7046 15.3902C13.6123 15.4669 13.4985 15.5085 13.3814 15.5084V15.5084Z" stroke="white" stroke-width="1.875" stroke-linecap="round" stroke-linejoin="round"/>
<path d="M9.33203 10.591L10.4015 8.57812H11.6157" stroke="white" stroke-width="1.45833" stroke-linecap="round" stroke-linejoin="round"/>
<path d="M11.9023 8.57812L12.9755 10.591" stroke="white" stroke-width="1.45833" stroke-linecap="round" stroke-linejoin="round"/>
<path d="M15.1037 3.26192L12.1259 5.37402H12.126C12.03 5.4416 11.917 5.48177 11.7995 5.49013C11.6819 5.49849 11.5643 5.47473 11.4594 5.42143C11.3546 5.36814 11.2666 5.28736 11.2051 5.18793C11.1435 5.08851 11.1108 4.97426 11.1105 4.85768V3.58112C11.0254 3.60452 10.9377 3.61712 10.8494 3.6186C9.19431 3.61895 7.57321 4.08356 6.1743 4.95852C4.77539 5.83348 3.65605 7.0829 2.94618 8.56177C2.23631 10.0406 1.96503 11.6883 2.16383 13.3135C2.36263 14.9388 3.02336 16.4749 4.06932 17.7437C5.11528 19.0124 6.50358 19.9618 8.07309 20.4815C9.6426 21.0012 11.3289 21.0701 12.9364 20.68C14.5439 20.2899 16.0065 19.4569 17.1546 18.2777C18.3027 17.0985 19.0891 15.6214 19.4226 14.0179C19.44 13.8758 19.4869 13.7389 19.5605 13.6157C19.6341 13.4925 19.7327 13.3857 19.8501 13.3021C19.9675 13.2185 20.1012 13.1599 20.2427 13.13C20.3842 13.1001 20.5304 13.0995 20.6721 13.1283C20.8138 13.1571 20.9479 13.2147 21.066 13.2974C21.1841 13.3801 21.2835 13.4861 21.3581 13.6087C21.4326 13.7313 21.4807 13.8679 21.4992 14.0098C21.5176 14.1517 21.5062 14.2959 21.4655 14.4332C21.0526 16.4207 20.0783 18.2515 18.6556 19.7132C17.2329 21.1749 15.4202 22.2074 13.428 22.691C11.4357 23.1745 9.34569 23.0892 7.40052 22.445C5.45534 21.8007 3.73482 20.6239 2.43872 19.0513C1.14261 17.4786 0.324095 15.5746 0.0781969 13.5603C-0.167702 11.546 0.169107 9.50397 1.04952 7.67139C1.92993 5.83881 3.31783 4.29082 5.05207 3.20715C6.78631 2.12349 8.79575 1.5486 10.8471 1.54923C10.9353 1.55069 11.0231 1.56329 11.1081 1.58672V0.633979C11.1085 0.517416 11.1412 0.403197 11.2028 0.303798C11.2643 0.204398 11.3523 0.123639 11.4571 0.0703503C11.5619 0.0170614 11.6795 -0.00670987 11.7971 0.00163037C11.9146 0.0099706 12.0276 0.0501049 12.1237 0.117646L15.1015 2.22974C15.1848 2.28832 15.2527 2.36575 15.2995 2.45557C15.3464 2.54539 15.3708 2.64499 15.3708 2.74605C15.3708 2.84712 15.3464 2.94671 15.2995 3.03653C15.2527 3.12635 15.1848 3.20378 15.1015 3.26236L15.1037 3.26192ZM19.4886 10.9081C19.5284 11.1498 19.6534 11.3698 19.8415 11.5292C20.0295 11.6885 20.2685 11.7769 20.5161 11.7787C20.5709 11.7799 20.6258 11.7761 20.6798 11.767C20.8851 11.737 21.0767 11.6472 21.2303 11.5091C21.3839 11.371 21.4925 11.1909 21.5424 10.9916C21.5922 10.7924 21.581 10.5829 21.5101 10.39C21.4393 10.197 21.3121 10.0292 21.1446 9.90799C20.9771 9.78674 20.777 9.71748 20.5696 9.70903C20.3622 9.70058 20.157 9.75331 19.98 9.86052C19.803 9.96773 19.6622 10.1246 19.5756 10.3111C19.489 10.4977 19.4604 10.7055 19.4934 10.9081L19.4886 10.9081ZM17.906 5.46547C17.9371 5.32194 17.9093 5.17207 17.8287 5.04884C17.748 4.9256 17.6212 4.8391 17.4761 4.80834C17.331 4.77759 17.1795 4.80511 17.0549 4.88485C16.9303 4.96459 16.8428 5.09002 16.8117 5.23354C16.7806 5.37707 16.8085 5.52693 16.8891 5.65017C16.9697 5.77341 17.0965 5.85992 17.2416 5.89067C17.3867 5.92143 17.5383 5.89391 17.6629 5.81417C17.7874 5.73443 17.8749 5.60899 17.906 5.46547Z" fill="white"/>
</svg>
