<svg width="24" height="24" viewBox="0 0 24 24" fill="none" xmlns="http://www.w3.org/2000/svg">
<path fill-rule="evenodd" clip-rule="evenodd" d="M6.12647 17.5638C5.58968 17.8572 5.14793 18.298 4.85327 18.8341C4.5586 19.3703 4.42329 19.9794 4.46328 20.5899C4.50326 21.2004 4.71688 21.7867 5.07896 22.2798C5.44103 22.7729 5.9365 23.1523 6.50698 23.3732C7.07747 23.5942 7.69921 23.6475 8.29897 23.5268C8.89874 23.4062 9.45154 23.1167 9.89226 22.6924C10.333 22.2681 10.6433 21.7267 10.7866 21.132C10.9299 20.5372 10.9002 19.9139 10.7011 19.3354H16.8897C16.6708 19.9779 16.6615 20.6732 16.8632 21.3213C17.0649 21.9693 17.4672 22.5366 18.012 22.9413C18.5569 23.346 19.2162 23.5672 19.8948 23.5731C20.5735 23.579 21.2366 23.3692 21.7883 22.9741C22.3401 22.5789 22.7522 22.0187 22.9651 21.3742C23.178 20.7298 23.1808 20.0344 22.9731 19.3882C22.7653 18.7421 22.3578 18.1786 21.8092 17.779C21.2606 17.3794 20.5992 17.1644 19.9205 17.1648H8.25353L8.02566 15.8815H20.87L23.6593 5.72322L6.08568 4.4508L5.42651 0.589844H0V2.7605H3.59501L6.12647 17.5638ZM20.8757 7.69587L19.2179 13.7111H7.66236L6.46034 6.65659L20.8757 7.69587ZM9.44739 20.4069C9.44739 21.4505 8.60139 22.2965 7.5578 22.2965C6.51421 22.2965 5.66821 21.4505 5.66821 20.4069C5.66821 19.3633 6.51421 18.5173 7.5578 18.5173C8.60139 18.5173 9.44739 19.3633 9.44739 20.4069ZM19.9619 22.2965C21.0054 22.2965 21.8514 21.4505 21.8514 20.4069C21.8514 19.3633 21.0054 18.5173 19.9619 18.5173C18.9183 18.5173 18.0723 19.3633 18.0723 20.4069C18.0723 21.4505 18.9183 22.2965 19.9619 22.2965Z" fill="#fff"/>
</svg>
