<svg width="82" height="13" viewBox="0 0 82 13" fill="none" xmlns="http://www.w3.org/2000/svg">
<path d="M26.2463 4.55629C25.8906 5.06906 25.2954 5.9605 24.9332 6.48116C24.7493 6.74593 24.4172 7.22666 25.5182 7.22666C26.6831 7.22666 31.3149 7.22666 31.3149 7.22666C31.3149 7.22666 32.2491 5.87372 33.0324 4.74217C34.0977 3.20286 33.1246 0 29.3158 0C25.9068 0 14.3161 0 14.3161 0L11.7153 3.76149C11.7153 3.76149 25.1981 3.76149 25.8901 3.76149C26.6057 3.76149 26.596 4.0514 26.2463 4.55629ZM21.9878 8.15458C20.8868 8.15458 21.2189 7.67287 21.4028 7.4081C21.765 6.88744 22.3699 6.00537 22.7256 5.49259C23.0758 4.98771 23.0851 4.69779 22.3685 4.69779C21.677 4.69779 15.8858 4.69779 15.8858 4.69779L10.6625 12.2543C10.6625 12.2543 19.9915 12.2543 23.4005 12.2543C27.6076 12.2543 29.9499 9.20823 30.672 8.15507C30.672 8.15458 23.1522 8.15458 21.9878 8.15458ZM30.2741 12.2543H37.7467L40.5795 8.15409L33.1079 8.15507C33.1056 8.15458 30.2741 12.2543 30.2741 12.2543ZM49.5541 0L46.688 4.1441H43.3531L46.2178 0H38.7476L33.7499 7.22666H52.0271L57.0234 0H49.5541ZM41.0816 12.2543H48.5514L51.3856 8.15507H43.9158C43.913 8.15458 41.0816 12.2543 41.0816 12.2543ZM0 9.77179V10.6425H10.4068L11.008 9.77179H0ZM12.1266 8.15458H0V9.02432H11.524L12.1266 8.15458ZM0 12.2543H9.29192L9.89036 11.3885H0V12.2543ZM70.4372 10.642H81.4036V9.77129H71.0394L70.4372 10.642ZM69.3233 12.2543H81.4036V11.3885H69.9212L69.3233 12.2543ZM72.1561 8.15458L71.5554 9.02531H81.4036V8.15458H72.1561ZM62.3718 7.22666L67.3691 0H59.4575C59.4547 0 54.4565 7.22666 54.4565 7.22666H62.3718ZM53.8159 8.15458C53.8159 8.15458 53.2698 8.94888 53.0044 9.33149C52.0665 10.6805 52.896 12.2543 55.9577 12.2543C59.4945 12.2543 67.9546 12.2543 67.9546 12.2543L70.7888 8.15507L53.8159 8.15458Z" fill="#D50029"/>
</svg>
