<svg width="49" height="15" viewBox="0 0 49 15" fill="none" xmlns="http://www.w3.org/2000/svg">
<path d="M40.1671 5.03516L42.1621 7.16155L44.0827 5.03516H48.1838L44.1758 9.3942L48.2387 13.7889H43.9721L41.9959 11.6456L40.0378 13.7889H35.918L39.9454 9.41234L35.918 5.03516H40.1671Z" fill="#F85604"/>
<path d="M35.9213 5.03544V7.99309H31.36V10.7071H35.9213V13.7892H28.0078V0H35.9213V3.07362H31.36V5.03544H35.9213Z" fill="#F85604"/>
<path d="M24.6596 0V5.64317H24.6227C23.8832 4.82164 22.9601 4.53592 21.8889 4.53592C19.6943 4.53592 18.041 5.97943 17.4609 7.88683C16.7983 5.78506 15.0914 4.4964 12.5606 4.4964C10.5053 4.4964 8.88217 5.38855 8.03542 6.84242V5.03544H3.78693V3.07362H8.42329V0H0V13.7892H3.78693V7.99309H7.5618C7.44926 8.41875 7.38897 8.87487 7.38897 9.35626C7.38897 12.2323 9.66126 14.2511 12.5606 14.2511C14.999 14.2511 16.6061 13.1439 17.4555 11.1257H14.2099C13.7711 11.7327 13.4381 11.9122 12.5606 11.9122C11.543 11.9122 10.6654 11.0537 10.6654 10.0359H17.274C17.5607 12.3204 19.4009 14.2906 21.9257 14.2906C23.015 14.2906 24.0125 13.7723 24.6221 12.8977H24.6589V13.7905H27.997V0H24.6596ZM10.7713 8.0339C10.9816 7.15795 11.6843 6.58586 12.5612 6.58586C13.5266 6.58586 14.1931 7.14046 14.3686 8.0339C14.4423 8.0339 10.7713 8.0339 10.7713 8.0339ZM22.6331 11.69C21.4025 11.69 20.6375 10.5808 20.6375 9.42299C20.6375 8.18551 21.3027 6.99533 22.6331 6.99533C24.0125 6.99533 24.5618 8.18551 24.5618 9.42299C24.5618 10.5963 23.9796 11.69 22.6331 11.69Z" fill="#2B017B"/>
</svg>
