<svg width="26" height="18" viewBox="0 0 26 18" fill="none" xmlns="http://www.w3.org/2000/svg">
<path d="M25.5312 1.46078C25.5312 1.63627 25.3977 1.77848 25.233 1.77848H0.298202C0.13337 1.77848 0 1.63627 0 1.46078V0.317693C0 0.142203 0.133567 0 0.298202 0H25.2325C25.3974 0 25.5307 0.142203 25.5307 0.317693V1.46078H25.5312ZM22.5484 5.39869C22.5484 5.2232 22.4149 5.08121 22.2502 5.08121H3.28123C3.1164 5.08121 2.98303 5.22341 2.98303 5.39869V6.54179C2.98303 6.71728 3.1166 6.85927 3.28123 6.85927H22.2502C22.415 6.85927 22.5484 6.71706 22.5484 6.54179V5.39869ZM19.566 10.4793C19.566 10.3038 19.4324 10.1618 19.2676 10.1618H6.26346C6.09863 10.1618 5.96506 10.304 5.96506 10.4793V11.6224C5.96506 11.7978 6.09863 11.9398 6.26346 11.9398H19.2676C19.4324 11.9398 19.566 11.7976 19.566 11.6224V10.4793ZM16.5836 15.56C16.5836 15.3846 16.45 15.2424 16.2854 15.2424H9.24609C9.08125 15.2424 8.94788 15.3846 8.94788 15.56V16.7031C8.94788 16.8786 9.08145 17.0208 9.24609 17.0208H16.2849C16.4497 17.0208 16.5831 16.8786 16.5831 16.7031V15.56H16.5836Z" fill="black"/>
</svg>
