<svg width="14" height="21" viewBox="0 0 14 21" fill="none" xmlns="http://www.w3.org/2000/svg">
<path d="M7.04599 1C6.35884 1 5.69983 1.27297 5.21394 1.75886C4.72805 2.24475 4.45508 2.90376 4.45508 3.59091V10.5C4.45508 11.1872 4.72805 11.8462 5.21394 12.3321C5.69983 12.8179 6.35884 13.0909 7.04599 13.0909C7.73314 13.0909 8.39215 12.8179 8.87804 12.3321C9.36393 11.8462 9.6369 11.1872 9.6369 10.5V3.59091C9.6369 2.90376 9.36393 2.24475 8.87804 1.75886C8.39215 1.27297 7.73314 1 7.04599 1V1Z" stroke="#737373" stroke-width="1.2" stroke-linecap="round" stroke-linejoin="round"/>
<path d="M13.0909 8.82227V10.5495C13.0909 12.1529 12.454 13.6906 11.3202 14.8243C10.1865 15.9581 8.64881 16.595 7.04546 16.595C5.4421 16.595 3.90442 15.9581 2.77067 14.8243C1.63693 13.6906 1 12.1529 1 10.5495V8.82227" stroke="#737373" stroke-width="1.2" stroke-linecap="round" stroke-linejoin="round"/>
<path d="M7.04492 16.543V19.9975" stroke="#737373" stroke-width="1.2" stroke-linecap="round" stroke-linejoin="round"/>
<path d="M3.5918 20H10.5009" stroke="#737373" stroke-width="1.2" stroke-linecap="round" stroke-linejoin="round"/>
</svg>
