<svg width="14" height="21" viewBox="0 0 14 21" fill="none" xmlns="http://www.w3.org/2000/svg">
<path d="M6.77255 1C6.0854 1 5.42639 1.27297 4.9405 1.75886C4.45461 2.24475 4.18164 2.90376 4.18164 3.59091V10.5C4.18164 11.1872 4.45461 11.8462 4.9405 12.3321C5.42639 12.8179 6.0854 13.0909 6.77255 13.0909C7.4597 13.0909 8.11871 12.8179 8.6046 12.3321C9.09049 11.8462 9.36346 11.1872 9.36346 10.5V3.59091C9.36346 2.90376 9.09049 2.24475 8.6046 1.75886C8.11871 1.27297 7.4597 1 6.77255 1V1Z" stroke="#737373" stroke-width="1.2" stroke-linecap="round" stroke-linejoin="round"/>
<path d="M12.8175 8.82227V10.5495C12.8175 12.1529 12.1805 13.6906 11.0468 14.8243C9.91306 15.9581 8.37537 16.595 6.77202 16.595C5.16866 16.595 3.63098 15.9581 2.49724 14.8243C1.36349 13.6906 0.726563 12.1529 0.726562 10.5495V8.82227" stroke="#737373" stroke-width="1.2" stroke-linecap="round" stroke-linejoin="round"/>
<path d="M6.77148 16.543V19.9975" stroke="#737373" stroke-width="1.2" stroke-linecap="round" stroke-linejoin="round"/>
<path d="M3.31836 20H10.2275" stroke="#737373" stroke-width="1.2" stroke-linecap="round" stroke-linejoin="round"/>
</svg>
