<svg width="17" height="17" viewBox="0 0 17 17" fill="none" xmlns="http://www.w3.org/2000/svg">
<path d="M11.228 6.84268L5.25195 3.39648" stroke="black" stroke-width="1.32801" stroke-linecap="round" stroke-linejoin="round"/>
<path d="M14.2158 11.2225V5.91041C14.2156 5.67753 14.1541 5.4488 14.0375 5.24718C13.921 5.04555 13.7535 4.87812 13.5518 4.76168L8.90374 2.10565C8.70186 1.9891 8.47285 1.92773 8.23973 1.92773C8.00662 1.92773 7.77761 1.9891 7.57573 2.10565L2.92768 4.76168C2.72599 4.87812 2.55848 5.04555 2.44193 5.24718C2.32539 5.4488 2.26391 5.67753 2.26367 5.91041V11.2225C2.26391 11.4554 2.32539 11.6841 2.44193 11.8857C2.55848 12.0873 2.72599 12.2548 2.92768 12.3712L7.57573 15.0272C7.77761 15.1438 8.00662 15.2051 8.23973 15.2051C8.47285 15.2051 8.70186 15.1438 8.90374 15.0272L13.5518 12.3712C13.7535 12.2548 13.921 12.0873 14.0375 11.8857C14.1541 11.6841 14.2156 11.4554 14.2158 11.2225Z" stroke="black" stroke-width="1.32801" stroke-linecap="round" stroke-linejoin="round"/>
<path d="M2.44531 5.22266L8.24209 8.57589L14.0389 5.22266" stroke="black" stroke-width="1.32801" stroke-linecap="round" stroke-linejoin="round"/>
<path d="M8.23828 15.2615V8.56836" stroke="black" stroke-width="1.32801" stroke-linecap="round" stroke-linejoin="round"/>
</svg>
