<svg width="65" height="16" viewBox="0 0 65 16" fill="none" xmlns="http://www.w3.org/2000/svg">
<path d="M24.5519 3.54688H21.0146C20.8975 3.5468 20.7842 3.58795 20.6951 3.66291C20.6061 3.73787 20.5471 3.84171 20.5289 3.95571L19.0983 12.8956C19.0917 12.9371 19.0943 12.9795 19.106 13.0199C19.1176 13.0602 19.138 13.0977 19.1657 13.1295C19.1934 13.1614 19.2278 13.187 19.2665 13.2045C19.3053 13.222 19.3474 13.2311 19.39 13.231H21.0787C21.1959 13.2311 21.3092 13.1898 21.3983 13.1148C21.4873 13.0397 21.5463 12.9358 21.5644 12.8217L21.9502 10.4104C21.9683 10.2964 22.0272 10.1925 22.1161 10.1175C22.2051 10.0424 22.3183 10.0012 22.4354 10.0011H23.5552C25.8853 10.0011 27.23 8.88979 27.5812 6.68758C27.7395 5.72411 27.588 4.9671 27.1302 4.43694C26.6275 3.85478 25.7358 3.54688 24.5519 3.54688ZM24.96 6.81196C24.7665 8.06294 23.7967 8.06294 22.859 8.06294H22.3252L22.6997 5.72666C22.7107 5.65831 22.746 5.59606 22.7994 5.55111C22.8528 5.50616 22.9207 5.48146 22.9909 5.48146H23.2355C23.8743 5.48146 24.4769 5.48146 24.7882 5.84034C24.9739 6.05444 25.0308 6.37254 24.96 6.81196ZM35.1255 6.77169H33.4316C33.3613 6.77169 33.2934 6.79639 33.2401 6.84134C33.1867 6.88629 33.1513 6.94854 33.1404 7.01689L33.0654 7.48384L32.9469 7.3146C32.5802 6.79004 31.7625 6.61468 30.9463 6.61468C29.0745 6.61468 27.4757 8.01197 27.1644 9.97204C27.0025 10.9498 27.2326 11.8847 27.7954 12.5367C28.3116 13.1362 29.0502 13.386 29.9289 13.386C31.4371 13.386 32.2735 12.4302 32.2735 12.4302L32.198 12.8941C32.1912 12.9355 32.1937 12.9779 32.2052 13.0184C32.2167 13.0588 32.237 13.0963 32.2646 13.1283C32.2923 13.1603 32.3266 13.186 32.3653 13.2036C32.4039 13.2213 32.446 13.2304 32.4887 13.2305H34.0145C34.1316 13.2306 34.245 13.1893 34.334 13.1143C34.4231 13.0392 34.482 12.9353 34.5001 12.8212L35.4156 7.10712C35.4224 7.06574 35.4199 7.02341 35.4084 6.98305C35.3969 6.9427 35.3767 6.90528 35.3491 6.87338C35.3215 6.84149 35.2872 6.81588 35.2486 6.79832C35.21 6.78077 35.168 6.77168 35.1255 6.77169ZM32.7643 10.021C32.6009 10.9748 31.8328 11.615 30.8532 11.615C30.3613 11.615 29.9682 11.4596 29.7158 11.1649C29.4655 10.8723 29.3703 10.4558 29.45 9.99192C29.6025 9.04629 30.3836 8.38512 31.3482 8.38512C31.8292 8.38512 32.2202 8.54264 32.4778 8.83984C32.7359 9.14009 32.8383 9.55912 32.7643 10.021ZM44.1469 6.77169H42.4447C42.3644 6.77182 42.2854 6.79124 42.2144 6.82829C42.1435 6.86533 42.0828 6.91887 42.0376 6.98427L39.69 10.3926L38.6948 7.11732C38.6643 7.01742 38.6019 6.92987 38.517 6.86763C38.432 6.80538 38.329 6.77174 38.2231 6.77169H36.5504C36.5035 6.77157 36.4572 6.7825 36.4154 6.80358C36.3736 6.82465 36.3375 6.85527 36.3101 6.89287C36.2827 6.93047 36.2649 6.97397 36.258 7.01975C36.2511 7.06553 36.2554 7.11226 36.2706 7.15606L38.1455 12.579L36.3828 15.0315C36.3515 15.075 36.3329 15.1262 36.3291 15.1793C36.3253 15.2325 36.3365 15.2857 36.3613 15.3331C36.3861 15.3805 36.4237 15.4202 36.4699 15.448C36.5162 15.4757 36.5692 15.4903 36.6233 15.4903H38.3235C38.4028 15.4904 38.481 15.4716 38.5514 15.4353C38.6218 15.3991 38.6821 15.3466 38.7274 15.2823L44.3889 7.22794C44.4196 7.18436 44.4376 7.13334 44.441 7.0804C44.4443 7.02746 44.4329 6.97462 44.408 6.92762C44.383 6.88061 44.3455 6.84123 44.2995 6.81375C44.2535 6.78626 44.2007 6.77172 44.1469 6.77169Z" fill="#022273"/>
<path d="M49.7883 3.54738H46.2505C46.1335 3.54743 46.0203 3.58864 45.9314 3.66359C45.8424 3.73853 45.7835 3.8423 45.7653 3.95622L44.3347 12.8961C44.328 12.9375 44.3306 12.9798 44.3421 13.0202C44.3537 13.0606 44.3739 13.098 44.4016 13.1298C44.4292 13.1617 44.4635 13.1873 44.5021 13.2049C44.5408 13.2224 44.5828 13.2315 44.6254 13.2315H46.4408C46.5227 13.2314 46.6019 13.2025 46.6641 13.15C46.7263 13.0974 46.7674 13.0248 46.7801 12.945L47.1861 10.411C47.2042 10.2969 47.2631 10.193 47.352 10.118C47.441 10.0429 47.5542 10.0017 47.6713 10.0016H48.7906C51.1212 10.0016 52.4654 8.8903 52.8171 6.68809C52.9759 5.72462 52.8233 4.96761 52.3656 4.43745C51.8634 3.85529 50.9722 3.54738 49.7883 3.54738ZM50.1964 6.81247C50.0034 8.06345 49.0337 8.06345 48.0954 8.06345H47.5622L47.9371 5.72717C47.9479 5.65882 47.9831 5.59651 48.0364 5.55154C48.0897 5.50656 48.1576 5.48188 48.2278 5.48197H48.4725C49.1107 5.48197 49.7138 5.48197 50.0252 5.84085C50.2109 6.05495 50.2672 6.37305 50.1964 6.81247ZM60.3614 6.7722H58.6685C58.5983 6.77201 58.5303 6.79665 58.477 6.84165C58.4236 6.88664 58.3885 6.949 58.3778 7.0174L58.3028 7.48435L58.1838 7.31511C57.8171 6.79055 56.9999 6.61519 56.1837 6.61519C54.3119 6.61519 52.7137 8.01248 52.4023 9.97255C52.241 10.9503 52.4701 11.8852 53.0328 12.5372C53.55 13.1367 54.2876 13.3865 55.1664 13.3865C56.6746 13.3865 57.5109 12.4307 57.5109 12.4307L57.4354 12.8946C57.4287 12.9361 57.4312 12.9786 57.4427 13.0191C57.4543 13.0597 57.4747 13.0972 57.5024 13.1292C57.5302 13.1612 57.5646 13.1869 57.6034 13.2045C57.6422 13.222 57.6844 13.2311 57.7271 13.231H59.2524C59.3695 13.2309 59.4827 13.1897 59.5717 13.1146C59.6606 13.0396 59.7195 12.9357 59.7376 12.8217L60.6536 7.10763C60.6601 7.06612 60.6574 7.02371 60.6457 6.98332C60.634 6.94293 60.6135 6.90552 60.5858 6.87365C60.558 6.84179 60.5236 6.81622 60.4848 6.79871C60.4461 6.78119 60.404 6.77215 60.3614 6.7722ZM58.0002 10.0215C57.8378 10.9753 57.0687 11.6155 56.0891 11.6155C55.5983 11.6155 55.2041 11.4601 54.9517 11.1654C54.7014 10.8728 54.6072 10.4563 54.6859 9.99243C54.8395 9.0468 55.6195 8.38563 56.5841 8.38563C57.0651 8.38563 57.4561 8.54315 57.7137 8.84034C57.9728 9.1406 58.0752 9.55963 58.0002 10.0215ZM62.3584 3.79258L60.9065 12.8961C60.8999 12.9375 60.9024 12.9798 60.9139 13.0202C60.9255 13.0606 60.9458 13.098 60.9734 13.1298C61.001 13.1617 61.0353 13.1873 61.074 13.2049C61.1126 13.2224 61.1547 13.2315 61.1972 13.2315H62.6568C62.8994 13.2315 63.1052 13.0582 63.1425 12.8222L64.5741 3.88281C64.5808 3.84138 64.5783 3.79901 64.5667 3.75863C64.5552 3.71825 64.5349 3.68082 64.5073 3.6489C64.4796 3.61698 64.4453 3.59133 64.4067 3.57372C64.3681 3.55611 64.326 3.54695 64.2835 3.54688H62.649C62.5789 3.54712 62.5111 3.57198 62.4578 3.617C62.4046 3.66203 62.3693 3.72427 62.3584 3.79258Z" fill="#167FC4"/>
<path d="M4.4125 14.9727L4.683 13.2792L4.08044 13.2655H1.20312L3.20271 0.769434C3.20866 0.731253 3.22834 0.696451 3.25815 0.671373C3.28796 0.646295 3.32593 0.632611 3.36512 0.632815H8.21667C9.82731 0.632815 10.9388 0.963147 11.5191 1.61515C11.7912 1.92101 11.9645 2.24064 12.0483 2.59238C12.1362 2.96145 12.1377 3.40241 12.0519 3.94022L12.0457 3.97947V4.32407L12.3177 4.47599C12.5254 4.57969 12.7121 4.71998 12.8686 4.88992C13.1013 5.15143 13.2518 5.4838 13.3155 5.87786C13.3811 6.28313 13.3594 6.76537 13.2518 7.31134C13.1277 7.93938 12.927 8.48636 12.656 8.93394C12.4169 9.3349 12.0954 9.68217 11.7121 9.95348C11.3521 10.2053 10.9243 10.3965 10.4407 10.5188C9.97213 10.6391 9.43784 10.6998 8.85182 10.6998H8.47425C8.20426 10.6998 7.94203 10.7956 7.73617 10.9674C7.53061 11.141 7.39424 11.3809 7.35136 11.6444L7.32291 11.7968L6.845 14.7815L6.82327 14.8911C6.81758 14.9258 6.80776 14.9431 6.79327 14.9549C6.77925 14.9662 6.76174 14.9725 6.74362 14.9727H4.4125Z" fill="#022273"/>
<path d="M12.5649 4.01953C12.5504 4.11078 12.5339 4.20407 12.5153 4.29991C11.8755 7.53747 9.68658 8.65591 6.89099 8.65591H5.46759C5.12571 8.65591 4.83761 8.9006 4.78434 9.23297L4.05557 13.7883L3.8492 15.0795C3.84098 15.1308 3.84412 15.1831 3.8584 15.233C3.87268 15.2829 3.89777 15.3292 3.93193 15.3686C3.9661 15.4081 4.00852 15.4398 4.0563 15.4615C4.10407 15.4832 4.15606 15.4945 4.20867 15.4945H6.73323C7.03219 15.4945 7.28615 15.2804 7.33321 14.9898L7.35804 14.8634L7.83337 11.8904L7.86388 11.7273C7.91043 11.4357 8.16491 11.2216 8.46386 11.2216H8.84144C11.2874 11.2216 13.2021 10.2428 13.7618 7.41053C13.9956 6.22735 13.8745 5.23941 13.2559 4.5446C13.0599 4.32966 12.8257 4.15173 12.5649 4.01953Z" fill="#167FC4"/>
<path d="M11.9121 3.75777C11.7078 3.69952 11.5 3.65406 11.2899 3.62166C10.8747 3.55878 10.4551 3.5286 10.0351 3.53143H6.23245C6.08774 3.53132 5.94776 3.58224 5.83781 3.67499C5.72787 3.76773 5.65522 3.89619 5.63299 4.03713L4.82406 9.08692L4.80078 9.23425C4.82598 9.07349 4.90873 8.92694 5.03405 8.82109C5.15937 8.71525 5.31899 8.6571 5.48403 8.65719H6.90743C9.70302 8.65719 11.8919 7.53824 12.5317 4.30119C12.5509 4.20535 12.5669 4.11206 12.5814 4.02081C12.4125 3.93355 12.2366 3.8604 12.0554 3.80212C12.0078 3.78658 11.9601 3.7718 11.9121 3.75777Z" fill="#022273"/>
<path d="M5.62097 4.03411C5.64301 3.89313 5.71562 3.76462 5.82562 3.67192C5.93562 3.57922 6.07571 3.52848 6.22044 3.52892H10.0231C10.4736 3.52892 10.8941 3.55798 11.2778 3.61915C11.5375 3.65938 11.7937 3.71955 12.0439 3.7991C12.2326 3.86079 12.408 3.93368 12.5699 4.0178C12.7602 2.82136 12.5683 2.00675 11.912 1.26911C11.1884 0.457039 9.88238 0.109375 8.21123 0.109375H3.35967C3.01831 0.109375 2.72711 0.354066 2.67435 0.686947L0.653563 13.3114C0.644151 13.3701 0.647732 13.43 0.66406 13.4871C0.680389 13.5442 0.709077 13.5972 0.748151 13.6423C0.787226 13.6875 0.83576 13.7237 0.890414 13.7486C0.945068 13.7735 1.00455 13.7865 1.06476 13.7866H4.06L4.81204 9.08391L5.62097 4.03411Z" fill="#022273"/>
</svg>
