<svg width="70" height="40" viewBox="0 0 62 16" fill="none" xmlns="http://www.w3.org/2000/svg">
<path d="M23.7638 3.71289H20.3848C20.2729 3.71282 20.1647 3.75213 20.0796 3.82374C19.9946 3.89534 19.9382 3.99453 19.9208 4.10344L18.5542 12.6435C18.5479 12.6831 18.5504 12.7236 18.5615 12.7622C18.5726 12.8007 18.5921 12.8365 18.6186 12.867C18.6451 12.8974 18.6779 12.9218 18.7149 12.9386C18.7519 12.9553 18.7921 12.9639 18.8328 12.9639H20.446C20.558 12.9639 20.6662 12.9246 20.7513 12.8529C20.8364 12.7811 20.8927 12.6818 20.91 12.5728L21.2786 10.2695C21.2959 10.1606 21.3521 10.0613 21.437 9.98962C21.522 9.91793 21.6302 9.8785 21.742 9.87843H22.8117C25.0376 9.87843 26.3222 8.81684 26.6577 6.71312C26.8089 5.79274 26.6641 5.06959 26.2269 4.56314C25.7466 4.00702 24.8948 3.71289 23.7638 3.71289ZM24.1537 6.83194C23.9689 8.02697 23.0425 8.02697 22.1467 8.02697H21.6368L21.9945 5.79518C22.005 5.72989 22.0387 5.67042 22.0897 5.62748C22.1407 5.58454 22.2056 5.56095 22.2727 5.56095H22.5064C23.1166 5.56095 23.6922 5.56095 23.9896 5.90377C24.167 6.1083 24.2214 6.41217 24.1537 6.83194ZM33.8645 6.79347H32.2464C32.1793 6.79347 32.1144 6.81706 32.0634 6.86C32.0124 6.90294 31.9787 6.96241 31.9682 7.0277L31.8965 7.47377L31.7834 7.31209C31.4331 6.811 30.6519 6.64348 29.8723 6.64348C28.0842 6.64348 26.5569 7.97827 26.2595 9.85068C26.1048 10.7847 26.3247 11.6778 26.8623 12.3006C27.3554 12.8733 28.0609 13.1119 28.9004 13.1119C30.3412 13.1119 31.1401 12.1988 31.1401 12.1988L31.068 12.642C31.0615 12.6816 31.0639 12.7221 31.0749 12.7608C31.0859 12.7994 31.1052 12.8352 31.1316 12.8658C31.158 12.8963 31.1908 12.9209 31.2278 12.9377C31.2647 12.9546 31.3049 12.9633 31.3456 12.9634H32.8032C32.9151 12.9634 33.0234 12.9241 33.1085 12.8524C33.1936 12.7807 33.2498 12.6814 33.2672 12.5724L34.1417 7.1139C34.1481 7.07437 34.1458 7.03393 34.1348 6.99538C34.1238 6.95683 34.1045 6.92108 34.0782 6.89061C34.0518 6.86015 34.019 6.83568 33.9822 6.81891C33.9453 6.80214 33.9051 6.79346 33.8645 6.79347ZM31.609 9.89742C31.4529 10.8085 30.7191 11.4202 29.7833 11.4202C29.3134 11.4202 28.9379 11.2717 28.6968 10.9902C28.4577 10.7107 28.3668 10.3128 28.4429 9.86967C28.5886 8.96634 29.3347 8.33473 30.2562 8.33473C30.7157 8.33473 31.0892 8.48521 31.3353 8.76911C31.5818 9.05594 31.6796 9.45623 31.609 9.89742ZM42.4824 6.79347H40.8564C40.7797 6.79359 40.7042 6.81215 40.6364 6.84753C40.5687 6.88292 40.5107 6.93407 40.4675 6.99654L38.2248 10.2524L37.2742 7.12364C37.245 7.02821 37.1855 6.94458 37.1043 6.88511C37.0231 6.82565 36.9247 6.79352 36.8236 6.79347H35.2257C35.1809 6.79335 35.1366 6.8038 35.0967 6.82393C35.0568 6.84406 35.0223 6.87331 34.9961 6.90923C34.97 6.94514 34.9529 6.9867 34.9464 7.03043C34.9398 7.07416 34.9439 7.11881 34.9584 7.16065L36.7495 12.341L35.0656 14.6839C35.0357 14.7254 35.018 14.7743 35.0143 14.8251C35.0107 14.8759 35.0213 14.9267 35.0451 14.972C35.0688 15.0172 35.1047 15.0552 35.1488 15.0817C35.193 15.1082 35.2437 15.1222 35.2954 15.1221H36.9195C36.9953 15.1222 37.07 15.1042 37.1372 15.0696C37.2044 15.035 37.2621 14.9849 37.3053 14.9235L42.7136 7.22931C42.743 7.18768 42.7602 7.13894 42.7634 7.08837C42.7666 7.0378 42.7557 6.98732 42.7318 6.94242C42.708 6.89752 42.6722 6.8599 42.6282 6.83364C42.5842 6.80739 42.5338 6.79349 42.4824 6.79347Z" fill="#022273"/>
<path d="M47.8713 3.71338H44.4918C44.38 3.71342 44.2719 3.75279 44.1869 3.82438C44.102 3.89598 44.0457 3.9951 44.0283 4.10393L42.6617 12.6439C42.6553 12.6835 42.6577 12.7239 42.6688 12.7625C42.6798 12.801 42.6992 12.8368 42.7256 12.8672C42.752 12.8977 42.7847 12.9221 42.8216 12.9389C42.8585 12.9557 42.8987 12.9644 42.9393 12.9644H44.6736C44.7518 12.9643 44.8275 12.9366 44.8869 12.8865C44.9463 12.8363 44.9856 12.7669 44.9977 12.6907L45.3856 10.27C45.4029 10.161 45.4591 10.0618 45.5441 9.99011C45.629 9.91841 45.7372 9.87898 45.849 9.87892H46.9182C49.1446 9.87892 50.4287 8.81732 50.7647 6.71361C50.9164 5.79323 50.7707 5.07008 50.3334 4.56363C49.8536 4.00751 49.0023 3.71338 47.8713 3.71338ZM48.2612 6.83243C48.0769 8.02745 47.1505 8.02745 46.2542 8.02745H45.7448L46.103 5.79567C46.1133 5.73037 46.1469 5.67085 46.1978 5.62789C46.2488 5.58493 46.3136 5.56135 46.3807 5.56143H46.6144C47.2241 5.56143 47.8002 5.56143 48.0976 5.90426C48.275 6.10879 48.3289 6.41266 48.2612 6.83243ZM57.9715 6.79396H56.3544C56.2873 6.79378 56.2224 6.81731 56.1714 6.8603C56.1205 6.90328 56.0869 6.96285 56.0767 7.02819L56.005 7.47426L55.8914 7.31258C55.5411 6.81149 54.7604 6.64397 53.9808 6.64397C52.1926 6.64397 50.6659 7.97876 50.3685 9.85116C50.2143 10.7852 50.4332 11.6783 50.9708 12.3011C51.4649 12.8738 52.1694 13.1124 53.0089 13.1124C54.4496 13.1124 55.2486 12.1993 55.2486 12.1993L55.1765 12.6425C55.17 12.6822 55.1724 12.7228 55.1834 12.7615C55.1945 12.8002 55.2139 12.8361 55.2404 12.8666C55.2669 12.8972 55.2999 12.9217 55.3369 12.9385C55.374 12.9553 55.4143 12.964 55.4551 12.9639H56.9122C57.024 12.9638 57.1322 12.9244 57.2172 12.8527C57.3021 12.781 57.3583 12.6818 57.3756 12.5728L58.2507 7.11438C58.2569 7.07473 58.2543 7.03422 58.2431 6.99564C58.2319 6.95705 58.2124 6.92132 58.1859 6.89087C58.1594 6.86043 58.1265 6.83601 58.0895 6.81928C58.0525 6.80255 58.0122 6.79391 57.9715 6.79396ZM55.716 9.89791C55.5609 10.809 54.8261 11.4207 53.8903 11.4207C53.4215 11.4207 53.045 11.2721 52.8038 10.9907C52.5647 10.7112 52.4748 10.3133 52.5499 9.87015C52.6966 8.96682 53.4417 8.33522 54.3632 8.33522C54.8227 8.33522 55.1962 8.48569 55.4423 8.7696C55.6898 9.05642 55.7876 9.45671 55.716 9.89791ZM59.8792 3.94761L58.4923 12.6439C58.4859 12.6835 58.4884 12.7239 58.4994 12.7625C58.5104 12.801 58.5298 12.8368 58.5562 12.8672C58.5826 12.8977 58.6154 12.9221 58.6523 12.9389C58.6892 12.9557 58.7293 12.9644 58.77 12.9644H60.1643C60.396 12.9644 60.5927 12.7988 60.6282 12.5733L61.9959 4.0338C62.0022 3.99422 61.9998 3.95375 61.9888 3.91518C61.9777 3.8766 61.9584 3.84084 61.932 3.81035C61.9056 3.77986 61.8728 3.75536 61.8359 3.73853C61.799 3.72171 61.7589 3.71296 61.7182 3.71289H60.1569C60.0898 3.71312 60.0251 3.73687 59.9742 3.77988C59.9233 3.82289 59.8896 3.88235 59.8792 3.94761Z" fill="#167FC4"/>
<path d="M4.52481 14.6243L4.78322 13.0066L4.2076 12.9934H1.45898L3.36913 1.05629C3.37482 1.01982 3.39362 0.986574 3.42209 0.962617C3.45057 0.938661 3.48684 0.925589 3.52428 0.925783H8.15884C9.69743 0.925783 10.7592 1.24134 11.3136 1.86418C11.5735 2.15636 11.739 2.46169 11.819 2.7977C11.903 3.15027 11.9045 3.5715 11.8225 4.08525L11.8166 4.12275V4.45194L12.0765 4.59706C12.2749 4.69613 12.4532 4.83014 12.6027 4.99248C12.825 5.2423 12.9688 5.5598 13.0296 5.93623C13.0923 6.32337 13.0716 6.78405 12.9688 7.30559C12.8502 7.90554 12.6585 8.42806 12.3996 8.85562C12.1712 9.23865 11.864 9.57039 11.4979 9.82957C11.154 10.0701 10.7454 10.2527 10.2834 10.3696C9.83577 10.4845 9.32538 10.5425 8.76558 10.5425H8.40489C8.14698 10.5425 7.89647 10.634 7.69983 10.7982C7.50346 10.964 7.37319 11.1932 7.33222 11.4449L7.30505 11.5905L6.84851 14.4417L6.82776 14.5464C6.82232 14.5795 6.81294 14.596 6.7991 14.6072C6.7857 14.618 6.76898 14.6241 6.75167 14.6243H4.52481Z" fill="#022273"/>
<path d="M12.3126 4.16406C12.2988 4.25123 12.2829 4.34035 12.2652 4.4319C11.654 7.52465 9.56298 8.59306 6.89243 8.59306H5.5327C5.20611 8.59306 4.9309 8.82681 4.88001 9.14432L4.18384 13.4959L3.98669 14.7294C3.97884 14.7783 3.98184 14.8283 3.99548 14.876C4.00913 14.9237 4.03309 14.9679 4.06573 15.0056C4.09836 15.0432 4.13889 15.0735 4.18453 15.0942C4.23017 15.115 4.27983 15.1258 4.33009 15.1258H6.74174C7.02732 15.1258 7.26992 14.9213 7.31488 14.6437L7.3386 14.5229L7.79266 11.6829L7.82181 11.5271C7.86628 11.2485 8.10937 11.044 8.39496 11.044H8.75564C11.0922 11.044 12.9213 10.109 13.4559 7.40339C13.6792 6.27313 13.5636 5.32938 12.9727 4.66564C12.7854 4.46032 12.5617 4.29035 12.3126 4.16406Z" fill="#167FC4"/>
<path d="M11.6897 3.90975C11.4946 3.85411 11.296 3.81068 11.0953 3.77973C10.6987 3.71965 10.2979 3.69083 9.89667 3.69353H6.26412C6.12588 3.69343 5.99216 3.74207 5.88713 3.83067C5.78211 3.91927 5.71271 4.04197 5.69147 4.17661L4.91872 9.00054L4.89648 9.14128C4.92056 8.98771 4.9996 8.84771 5.11932 8.7466C5.23904 8.64549 5.39152 8.58995 5.54918 8.59003H6.90891C9.57946 8.59003 11.6704 7.52113 12.2816 4.42886C12.2999 4.33731 12.3152 4.24819 12.3291 4.16103C12.1678 4.07767 11.9997 4.00779 11.8266 3.95211C11.7812 3.93727 11.7356 3.92315 11.6897 3.90975Z" fill="#022273"/>
<path d="M5.67982 4.17693C5.70087 4.04225 5.77023 3.91949 5.87531 3.83093C5.98039 3.74238 6.11421 3.69391 6.25247 3.69434H9.88501C10.3154 3.69434 10.7171 3.72209 11.0837 3.78053C11.3318 3.81896 11.5764 3.87643 11.8154 3.95243C11.9958 4.01136 12.1633 4.08099 12.3179 4.16134C12.4997 3.01842 12.3164 2.24024 11.6894 1.53559C10.9982 0.759849 9.75062 0.427734 8.15422 0.427734H3.51966C3.19356 0.427734 2.91539 0.661481 2.86499 0.979473L0.934584 13.0393C0.925592 13.0953 0.929013 13.1526 0.944611 13.2071C0.960209 13.2617 0.987615 13.3123 1.02494 13.3554C1.06227 13.3985 1.10863 13.4332 1.16084 13.457C1.21305 13.4807 1.26987 13.4931 1.32738 13.4932H4.18866L4.90706 9.00086L5.67982 4.17693Z" fill="#022273"/>
</svg>
