<svg  viewBox="0 0 12 12" fill="none" xmlns="http://www.w3.org/2000/svg">
<path d="M1.5 3H2.5H10.5" stroke="black" stroke-width="1.00306" stroke-linecap="round" stroke-linejoin="round"/>
<path d="M3.99609 3V2C3.99609 1.73478 4.10145 1.48043 4.28899 1.29289C4.47652 1.10536 4.73088 1 4.99609 1H6.99609C7.26131 1 7.51566 1.10536 7.7032 1.29289C7.89074 1.48043 7.99609 1.73478 7.99609 2V3M9.49609 3V10C9.49609 10.2652 9.39074 10.5196 9.2032 10.7071C9.01566 10.8946 8.76131 11 8.49609 11H3.49609C3.23088 11 2.97652 10.8946 2.78899 10.7071C2.60145 10.5196 2.49609 10.2652 2.49609 10V3H9.49609Z" stroke="black" stroke-width="1.00306" stroke-linecap="round" stroke-linejoin="round"/>
<path d="M5 5.5V8.5" stroke="black" stroke-width="1.00306" stroke-linecap="round" stroke-linejoin="round"/>
<path d="M6.99609 5.5V8.5" stroke="black" stroke-width="1.00306" stroke-linecap="round" stroke-linejoin="round"/>
</svg>
