<svg width="12" height="12" viewBox="0 0 12 12" fill="none" xmlns="http://www.w3.org/2000/svg">
<path fill-rule="evenodd" clip-rule="evenodd" d="M5.24634 0.811567C5.28556 0.687207 5.3634 0.578588 5.46856 0.501485C5.57372 0.424383 5.70072 0.382812 5.83111 0.382812C5.96151 0.382812 6.08851 0.424383 6.19367 0.501485C6.29883 0.578588 6.37667 0.687207 6.41589 0.811567L7.47189 4.05905H10.8783C11.0134 4.05394 11.1464 4.09319 11.2571 4.1708C11.3677 4.24841 11.4499 4.36011 11.4911 4.48884C11.5323 4.61757 11.5302 4.75624 11.4852 4.88367C11.4401 5.0111 11.3546 5.12028 11.2417 5.19453L8.47679 7.19866L9.53279 10.4518C9.57455 10.5757 9.57561 10.7098 9.5358 10.8343C9.49598 10.9589 9.41739 11.0675 9.3115 11.1442C9.20561 11.2209 9.07796 11.2618 8.9472 11.2608C8.81643 11.2598 8.68941 11.2171 8.58466 11.1388L5.81408 9.11195L3.04918 11.1218C2.94443 11.2 2.81741 11.2428 2.68664 11.2438C2.55588 11.2447 2.42823 11.2039 2.32234 11.1271C2.21645 11.0504 2.13786 10.9419 2.09804 10.8173C2.05823 10.6927 2.05929 10.5587 2.10105 10.4348L3.15705 7.18163L0.392146 5.1775C0.279212 5.10325 0.193693 4.99407 0.148653 4.86664C0.103613 4.73921 0.101531 4.60053 0.142723 4.47181C0.183915 4.34308 0.266118 4.23138 0.37677 4.15377C0.487423 4.07616 0.620441 4.03691 0.755501 4.04202H4.16195L5.24634 0.811567Z" fill="#FDBC15"/>
</svg>
