<svg width="19" height="16" viewBox="0 0 19 16" fill="none" xmlns="http://www.w3.org/2000/svg">
<path d="M0.5715 15.9999C0.554548 16 0.537616 15.9987 0.520866 15.9961C0.450691 15.9856 0.385522 15.9539 0.334303 15.9053C0.283085 15.8567 0.248325 15.7937 0.234793 15.7248C-0.438081 12.2851 0.346759 9.10237 2.44175 6.76309C4.64424 4.30498 8.05758 3.0098 11.8507 3.17944L11.8508 0.339568C11.8508 0.272404 11.8709 0.206736 11.9086 0.150878C11.9463 0.0950194 11.9999 0.0514838 12.0627 0.025783C12.1255 8.22458e-05 12.1945 -0.00662776 12.2611 0.00650258C12.3277 0.0196329 12.3889 0.0520131 12.4369 0.0995432L18.8995 6.48958C18.9638 6.55327 19 6.63963 19 6.72968C19 6.81972 18.9638 6.90608 18.8995 6.96977L12.4369 13.3598C12.3889 13.4073 12.3277 13.4397 12.2611 13.4528C12.1945 13.466 12.1255 13.4593 12.0627 13.4336C11.9999 13.4079 11.9463 13.3643 11.9086 13.3085C11.8709 13.2526 11.8508 13.1869 11.8508 13.1198V10.3871C7.11741 9.33227 2.76526 12.2886 0.874598 15.8197C0.845415 15.8741 0.801792 15.9196 0.74841 15.9514C0.695029 15.9832 0.633905 16 0.5716 16L0.5715 15.9999ZM11.1914 3.84385C7.86116 3.84385 4.8987 5.04557 2.95605 7.21372C1.19398 9.17997 0.430125 11.7981 0.762923 14.6644C1.87257 12.9567 3.41526 11.5661 5.23743 10.6311C7.3982 9.497 9.90812 9.19728 12.2798 9.79019C12.3537 9.80894 12.4191 9.85143 12.4658 9.91097C12.5126 9.97051 12.538 10.0437 12.538 10.1191V12.2997L18.1708 6.7294L12.5373 1.15911V3.53901C12.5373 3.58561 12.5275 3.63171 12.5087 3.67444C12.4899 3.71716 12.4624 3.7556 12.4279 3.78738C12.3934 3.81915 12.3527 3.84357 12.3083 3.85913C12.2638 3.87469 12.2166 3.88106 12.1696 3.87783C11.8406 3.85507 11.5145 3.84369 11.1912 3.84369L11.1914 3.84385Z" fill="black"/>
</svg>
