<svg width="17" height="17" viewBox="0 0 17 17" fill="none" xmlns="http://www.w3.org/2000/svg">
<path d="M4.58968 1.75586L2.59766 4.41189V13.708C2.59766 14.0602 2.73757 14.398 2.98662 14.647C3.23567 14.8961 3.57346 15.036 3.92567 15.036H13.2218C13.574 15.036 13.9118 14.8961 14.1608 14.647C14.4099 14.398 14.5498 14.0602 14.5498 13.708V4.41189L12.5578 1.75586H4.58968Z" stroke="white" stroke-width="1.32801" stroke-linecap="round" stroke-linejoin="round"/>
<path d="M2.59766 4.41016H14.5498" stroke="white" stroke-width="1.32801" stroke-linecap="round" stroke-linejoin="round"/>
<path d="M11.2281 7.06641C11.2281 7.77083 10.9482 8.4464 10.4501 8.9445C9.95204 9.4426 9.27646 9.72243 8.57204 9.72243C7.86762 9.72243 7.19205 9.4426 6.69395 8.9445C6.19585 8.4464 5.91602 7.77083 5.91602 7.06641" stroke="white" stroke-width="1.32801" stroke-linecap="round" stroke-linejoin="round"/>
</svg>
