<svg width="14" height="14" viewBox="0 0 14 14" fill="none" xmlns="http://www.w3.org/2000/svg">
<path d="M10.555 12.4664H3.44501C3.25327 12.4666 3.06701 12.3978 2.91601 12.2709C2.76501 12.144 2.658 11.9665 2.61209 11.7666L1.01265 4.89184C0.997041 4.82492 0.995861 4.75505 1.0092 4.68756C1.02254 4.62007 1.05004 4.55673 1.08962 4.50238C1.12919 4.44802 1.1798 4.40407 1.23758 4.37387C1.29537 4.34368 1.35881 4.32803 1.42307 4.32813H12.5769C12.6412 4.32803 12.7046 4.34368 12.7624 4.37387C12.8202 4.40407 12.8708 4.44802 12.9104 4.50238C12.95 4.55673 12.9775 4.62007 12.9908 4.68756C13.0041 4.75505 13.003 4.82492 12.9874 4.89184L11.3879 11.7666C11.342 11.9665 11.235 12.144 11.084 12.2709C10.933 12.3978 10.7467 12.4666 10.555 12.4664V12.4664Z" stroke="#151515" stroke-width="1.14042" stroke-linecap="round" stroke-linejoin="round"/>
<path d="M5.68002 1L3.92969 4.33048" stroke="#151515" stroke-width="1.14042" stroke-linecap="round" stroke-linejoin="round"/>
<path d="M8.13672 1L9.89309 4.33048" stroke="#151515" stroke-width="1.14042" stroke-linecap="round" stroke-linejoin="round"/>
</svg>
