<svg width="25" height="24" viewBox="0 0 25 24" fill="none" xmlns="http://www.w3.org/2000/svg">
<path d="M19.2841 22.0237H6.24912C5.89759 22.0241 5.55611 21.8979 5.27929 21.6653C5.00246 21.4327 4.80627 21.1072 4.7221 20.7408L1.78979 8.137C1.76118 8.0143 1.75901 7.88621 1.78347 7.76248C1.80792 7.63875 1.85834 7.52263 1.9309 7.42298C2.00346 7.32332 2.09623 7.24275 2.20217 7.18739C2.30811 7.13203 2.42441 7.10334 2.54223 7.10352H22.991C23.1088 7.10334 23.2251 7.13203 23.331 7.18739C23.437 7.24275 23.5297 7.32332 23.6023 7.42298C23.6749 7.52263 23.7253 7.63875 23.7497 7.76248C23.7742 7.88621 23.772 8.0143 23.7434 8.137L20.8111 20.7408C20.7269 21.1072 20.5307 21.4327 20.2539 21.6653C19.9771 21.8979 19.6356 22.0241 19.2841 22.0237V22.0237Z" stroke="white" stroke-width="2.01307" stroke-linecap="round" stroke-linejoin="round"/>
<path d="M10.3457 1L7.13672 7.10588" stroke="white" stroke-width="2.01307" stroke-linecap="round" stroke-linejoin="round"/>
<path d="M14.8477 1L18.0677 7.10588" stroke="white" stroke-width="2.01307" stroke-linecap="round" stroke-linejoin="round"/>
</svg>
