<svg viewBox="0 0 14 12" fill="none" xmlns="http://www.w3.org/2000/svg">
<path fill-rule="evenodd" clip-rule="evenodd" d="M6.24439 0.999067C6.2836 0.874707 6.36144 0.766088 6.4666 0.688985C6.57176 0.611883 6.69876 0.570312 6.82916 0.570312C6.95956 0.570312 7.08656 0.611883 7.19172 0.688985C7.29688 0.766088 7.37472 0.874707 7.41394 0.999067L8.46993 4.24655H11.8764C12.0114 4.24144 12.1445 4.28069 12.2551 4.3583C12.3658 4.43591 12.448 4.54761 12.4892 4.67634C12.5304 4.80507 12.5283 4.94374 12.4832 5.07117C12.4382 5.1986 12.3527 5.30778 12.2397 5.38203L9.47484 7.38616L10.5308 10.6393C10.5726 10.7632 10.5737 10.8973 10.5338 11.0218C10.494 11.1464 10.4154 11.255 10.3095 11.3317C10.2037 11.4084 10.076 11.4493 9.94524 11.4483C9.81448 11.4473 9.68745 11.4046 9.58271 11.3263L6.81213 9.29945L4.04723 11.3093C3.94248 11.3875 3.81545 11.4303 3.68469 11.4313C3.55393 11.4322 3.42628 11.3914 3.32039 11.3146C3.21449 11.2379 3.1359 11.1294 3.09609 11.0048C3.05628 10.8802 3.05733 10.7462 3.0991 10.6223L4.1551 7.36913L1.39019 5.365C1.27726 5.29075 1.19174 5.18157 1.1467 5.05414C1.10166 4.92671 1.09958 4.78803 1.14077 4.65931C1.18196 4.53058 1.26416 4.41888 1.37482 4.34127C1.48547 4.26366 1.61849 4.22441 1.75355 4.22952H5.16L6.24439 0.999067Z" stroke="#D1D1D1" stroke-linecap="round" stroke-linejoin="round"/>
</svg>
