<svg width="24" height="23" viewBox="0 0 24 23" fill="none" xmlns="http://www.w3.org/2000/svg">
<path fill-rule="evenodd" clip-rule="evenodd" d="M6.12647 16.9739C5.58968 17.2674 5.14793 17.7082 4.85327 18.2443C4.5586 18.7804 4.42329 19.3896 4.46328 20.0001C4.50326 20.6105 4.71688 21.1968 5.07896 21.69C5.44103 22.1831 5.9365 22.5624 6.50698 22.7834C7.07747 23.0043 7.69921 23.0576 8.29897 22.937C8.89874 22.8164 9.45154 22.5269 9.89226 22.1026C10.333 21.6783 10.6433 21.1369 10.7866 20.5421C10.9299 19.9474 10.9002 19.324 10.7011 18.7456H16.8897C16.6708 19.388 16.6615 20.0834 16.8632 20.7314C17.0649 21.3795 17.4672 21.9467 18.012 22.3514C18.5569 22.7561 19.2162 22.9774 19.8948 22.9833C20.5735 22.9892 21.2366 22.7794 21.7883 22.3842C22.3401 21.989 22.7522 21.4288 22.9651 20.7844C23.178 20.1399 23.1808 19.4445 22.9731 18.7984C22.7653 18.1523 22.3578 17.5888 21.8092 17.1892C21.2606 16.7896 20.5992 16.5745 19.9205 16.575H8.25353L8.02566 15.2916H20.87L23.6593 5.13338L6.08568 3.86096L5.42651 0H0V2.17065H3.59501L6.12647 16.9739ZM20.8757 7.10602L19.2179 13.1212H7.66236L6.46034 6.06675L20.8757 7.10602ZM9.44739 19.8171C9.44739 20.8607 8.60139 21.7067 7.5578 21.7067C6.51421 21.7067 5.66821 20.8607 5.66821 19.8171C5.66821 18.7735 6.51421 17.9275 7.5578 17.9275C8.60139 17.9275 9.44739 18.7735 9.44739 19.8171ZM19.9619 21.7067C21.0054 21.7067 21.8514 20.8607 21.8514 19.8171C21.8514 18.7735 21.0054 17.9275 19.9619 17.9275C18.9183 17.9275 18.0723 18.7735 18.0723 19.8171C18.0723 20.8607 18.9183 21.7067 19.9619 21.7067Z" fill="black"/>
</svg>
