<svg width="17" height="17" viewBox="0 0 17 17" fill="none" xmlns="http://www.w3.org/2000/svg">
<g clip-path="url(#clip0_2798_14886)">
<path d="M10.8937 2.61914H0.933594V11.2512H10.8937V2.61914Z" stroke="black" stroke-width="1.32801" stroke-linecap="round" stroke-linejoin="round"/>
<path d="M10.8945 5.93945H13.5506L15.5426 7.93147V11.2515H10.8945V5.93945Z" stroke="black" stroke-width="1.32801" stroke-linecap="round" stroke-linejoin="round"/>
<path d="M3.92369 14.572C4.84049 14.572 5.58371 13.8288 5.58371 12.912C5.58371 11.9952 4.84049 11.252 3.92369 11.252C3.00689 11.252 2.26367 11.9952 2.26367 12.912C2.26367 13.8288 3.00689 14.572 3.92369 14.572Z" stroke="black" stroke-width="1.32801" stroke-linecap="round" stroke-linejoin="round"/>
<path d="M12.5545 14.572C13.4713 14.572 14.2146 13.8288 14.2146 12.912C14.2146 11.9952 13.4713 11.252 12.5545 11.252C11.6377 11.252 10.8945 11.9952 10.8945 12.912C10.8945 13.8288 11.6377 14.572 12.5545 14.572Z" stroke="black" stroke-width="1.32801" stroke-linecap="round" stroke-linejoin="round"/>
</g>
<defs>
<clipPath id="clip0_2798_14886">
<rect width="15.9362" height="15.9362" fill="white" transform="translate(0.271484 0.626953)"/>
</clipPath>
</defs>
</svg>
